STARTFONT 2.1
COMMENT Copyright (C) 1990-1991 EWT Consulting
COMMENT Portions Copyright (C) 1994-1995 Cronyx Ltd.
COMMENT Changes Copyright (C) 1996-1997 by Andrey A. Chernov, Moscow, Russia.
COMMENT Modified by Serge Vakulenko, <vak@cronyx.ru>
COMMENT Changes 1999 by Serge Winitzki.
COMMENT This software may be used, modified, copied, distributed, and sold,
COMMENT in both source and binary form provided that the copyright
COMMENT and these terms are retained. Under no circumstances is the author
COMMENT responsible for the proper functioning of this software, nor does
COMMENT the author assume any responsibility for damages incurred with its use.
COMMENT $XFree86$
FONT -Cronyx-Helvetica-Medium-O-Normal--11-80-100-100-P-46-KOI8-R
SIZE 8 96 96
FONTBOUNDINGBOX 14 13 -1 -2
STARTPROPERTIES 21
DEFAULT_CHAR 32
FONT_ASCENT 11
FONT_DESCENT 2
SPACING "P"
FONTNAME_REGISTRY ""
FOUNDRY "Cronyx"
FAMILY_NAME "Helvetica"
WEIGHT_NAME "Medium"
SLANT "O"
SETWIDTH_NAME "Normal"
ADD_STYLE_NAME ""
AVERAGE_WIDTH 46
CHARSET_REGISTRY "KOI8"
CHARSET_ENCODING "R"
PIXEL_SIZE 11
POINT_SIZE 80
RESOLUTION_X 100
RESOLUTION_Y 100
COPYRIGHT "Copyright (C) 1990, 1991 EWT Consulting, Portions Copyright (C) 1994 Cronyx Ltd., Portions Copyright (C) 1996-1997 by Andrey A. Chernov, Moscow, Russia."
_XMBDFED_INFO "Edited with xmbdfed 4.3."
_XFREE86_GLYPH_RANGES "32_126 149 154 156_158 163 179 191_255"
ENDPROPERTIES
CHARS 167
STARTCHAR space
ENCODING 32
SWIDTH 281 0
DWIDTH 3 0
BBX 0 0 -1 0
BITMAP
ENDCHAR
STARTCHAR exclam
ENCODING 33
SWIDTH 281 0
DWIDTH 3 0
BBX 3 9 0 0
BITMAP
20
20
40
40
40
40
80
00
80
ENDCHAR
STARTCHAR quotedbl
ENCODING 34
SWIDTH 375 0
DWIDTH 4 0
BBX 3 3 1 6
BITMAP
A0
A0
A0
ENDCHAR
STARTCHAR numbersign
ENCODING 35
SWIDTH 562 0
DWIDTH 6 0
BBX 7 9 0 0
BITMAP
14
14
7C
28
28
28
F8
50
50
ENDCHAR
STARTCHAR dollar
ENCODING 36
SWIDTH 562 0
DWIDTH 6 0
BBX 7 10 0 -1
BITMAP
08
1C
2A
50
30
18
14
A8
70
20
ENDCHAR
STARTCHAR percent
ENCODING 37
SWIDTH 750 0
DWIDTH 8 0
BBX 9 9 0 0
BITMAP
1800
2880
3300
0400
0800
1000
6C00
9200
0C00
ENDCHAR
STARTCHAR ampersand
ENCODING 38
SWIDTH 562 0
DWIDTH 6 0
BBX 7 9 0 0
BITMAP
10
28
50
20
20
54
88
90
68
ENDCHAR
STARTCHAR quotesingle
ENCODING 39
SWIDTH 187 0
DWIDTH 2 0
BBX 1 3 1 6
BITMAP
80
80
80
ENDCHAR
STARTCHAR parenleft
ENCODING 40
SWIDTH 281 0
DWIDTH 3 0
BBX 4 11 0 -2
BITMAP
10
20
20
20
40
40
40
40
80
80
40
ENDCHAR
STARTCHAR parenright
ENCODING 41
SWIDTH 281 0
DWIDTH 3 0
BBX 4 11 0 -2
BITMAP
20
10
10
10
20
20
20
20
40
40
80
ENDCHAR
STARTCHAR asterisk
ENCODING 42
SWIDTH 375 0
DWIDTH 4 0
BBX 3 3 1 5
BITMAP
A0
40
A0
ENDCHAR
STARTCHAR plus
ENCODING 43
SWIDTH 562 0
DWIDTH 6 0
BBX 6 5 1 1
BITMAP
10
10
F8
20
20
ENDCHAR
STARTCHAR comma
ENCODING 44
SWIDTH 281 0
DWIDTH 3 0
BBX 2 2 0 -1
BITMAP
40
80
ENDCHAR
STARTCHAR hyphen
ENCODING 45
SWIDTH 281 0
DWIDTH 3 0
BBX 2 1 1 3
BITMAP
C0
ENDCHAR
STARTCHAR period
ENCODING 46
SWIDTH 281 0
DWIDTH 3 0
BBX 1 1 0 0
BITMAP
80
ENDCHAR
STARTCHAR slash
ENCODING 47
SWIDTH 281 0
DWIDTH 3 0
BBX 4 9 0 0
BITMAP
10
10
20
20
20
40
80
80
80
ENDCHAR
STARTCHAR zero
ENCODING 48
SWIDTH 562 0
DWIDTH 6 0
BBX 7 9 0 0
BITMAP
1C
22
44
44
44
44
88
88
70
ENDCHAR
STARTCHAR one
ENCODING 49
SWIDTH 562 0
DWIDTH 6 0
BBX 5 9 0 0
BITMAP
08
38
10
10
10
10
20
20
20
ENDCHAR
STARTCHAR two
ENCODING 50
SWIDTH 562 0
DWIDTH 6 0
BBX 7 9 0 0
BITMAP
1C
22
04
04
08
10
60
80
F8
ENDCHAR
STARTCHAR three
ENCODING 51
SWIDTH 562 0
DWIDTH 6 0
BBX 7 9 0 0
BITMAP
1C
22
04
04
18
04
08
88
70
ENDCHAR
STARTCHAR four
ENCODING 52
SWIDTH 562 0
DWIDTH 6 0
BBX 7 9 0 0
BITMAP
04
0C
18
28
28
48
F8
10
10
ENDCHAR
STARTCHAR five
ENCODING 53
SWIDTH 562 0
DWIDTH 6 0
BBX 7 9 0 0
BITMAP
3E
20
40
78
44
04
08
88
70
ENDCHAR
STARTCHAR six
ENCODING 54
SWIDTH 562 0
DWIDTH 6 0
BBX 7 9 0 0
BITMAP
1C
22
40
40
78
44
88
88
70
ENDCHAR
STARTCHAR seven
ENCODING 55
SWIDTH 562 0
DWIDTH 6 0
BBX 7 9 0 0
BITMAP
3E
04
08
08
10
20
40
40
40
ENDCHAR
STARTCHAR eight
ENCODING 56
SWIDTH 562 0
DWIDTH 6 0
BBX 7 9 0 0
BITMAP
1C
22
44
44
38
44
88
88
70
ENDCHAR
STARTCHAR nine
ENCODING 57
SWIDTH 562 0
DWIDTH 6 0
BBX 7 9 0 0
BITMAP
1C
22
44
44
3C
04
08
88
70
ENDCHAR
STARTCHAR colon
ENCODING 58
SWIDTH 281 0
DWIDTH 3 0
BBX 2 6 0 0
BITMAP
40
00
00
00
00
80
ENDCHAR
STARTCHAR semicolon
ENCODING 59
SWIDTH 281 0
DWIDTH 3 0
BBX 3 7 0 -1
BITMAP
20
00
00
00
00
40
80
ENDCHAR
STARTCHAR less
ENCODING 60
SWIDTH 468 0
DWIDTH 5 0
BBX 5 7 0 0
BITMAP
08
10
20
40
40
20
10
ENDCHAR
STARTCHAR equal
ENCODING 61
SWIDTH 562 0
DWIDTH 6 0
BBX 5 3 1 2
BITMAP
F8
00
F8
ENDCHAR
STARTCHAR greater
ENCODING 62
SWIDTH 468 0
DWIDTH 5 0
BBX 5 7 0 0
BITMAP
40
20
10
10
20
40
80
ENDCHAR
STARTCHAR question
ENCODING 63
SWIDTH 562 0
DWIDTH 6 0
BBX 7 9 0 0
BITMAP
1C
22
04
04
08
10
20
00
20
ENDCHAR
STARTCHAR at
ENCODING 64
SWIDTH 1031 0
DWIDTH 11 0
BBX 12 10 0 -1
BITMAP
0780
1860
2020
4720
4920
4920
46E0
4000
6000
1F00
ENDCHAR
STARTCHAR A
ENCODING 65
SWIDTH 656 0
DWIDTH 7 0
BBX 9 9 -1 0
BITMAP
0400
0800
1400
1400
2200
2200
7C00
8200
8200
ENDCHAR
STARTCHAR B
ENCODING 66
SWIDTH 656 0
DWIDTH 7 0
BBX 7 9 0 0
BITMAP
3C
22
44
44
78
44
88
88
F0
ENDCHAR
STARTCHAR C
ENCODING 67
SWIDTH 656 0
DWIDTH 7 0
BBX 8 9 0 0
BITMAP
1E
21
40
40
40
40
80
84
78
ENDCHAR
STARTCHAR D
ENCODING 68
SWIDTH 750 0
DWIDTH 8 0
BBX 8 9 0 0
BITMAP
3C
22
42
42
42
42
84
88
F0
ENDCHAR
STARTCHAR E
ENCODING 69
SWIDTH 656 0
DWIDTH 7 0
BBX 7 9 0 0
BITMAP
3E
20
40
40
78
40
80
80
F8
ENDCHAR
STARTCHAR F
ENCODING 70
SWIDTH 562 0
DWIDTH 6 0
BBX 7 9 0 0
BITMAP
3E
20
40
40
78
40
80
80
80
ENDCHAR
STARTCHAR G
ENCODING 71
SWIDTH 750 0
DWIDTH 8 0
BBX 8 9 0 0
BITMAP
1E
21
40
40
4E
42
84
8C
74
ENDCHAR
STARTCHAR H
ENCODING 72
SWIDTH 750 0
DWIDTH 8 0
BBX 8 9 0 0
BITMAP
21
21
42
42
7E
42
84
84
84
ENDCHAR
STARTCHAR I
ENCODING 73
SWIDTH 281 0
DWIDTH 3 0
BBX 3 9 0 0
BITMAP
20
20
40
40
40
40
80
80
80
ENDCHAR
STARTCHAR J
ENCODING 74
SWIDTH 468 0
DWIDTH 5 0
BBX 6 9 -1 0
BITMAP
04
04
08
08
08
08
90
90
60
ENDCHAR
STARTCHAR K
ENCODING 75
SWIDTH 656 0
DWIDTH 7 0
BBX 8 9 0 0
BITMAP
22
24
58
60
60
50
90
88
84
ENDCHAR
STARTCHAR L
ENCODING 76
SWIDTH 562 0
DWIDTH 6 0
BBX 7 9 0 0
BITMAP
20
20
40
40
40
40
80
80
F8
ENDCHAR
STARTCHAR M
ENCODING 77
SWIDTH 843 0
DWIDTH 9 0
BBX 9 9 0 0
BITMAP
2080
2080
6300
6300
5500
5900
9200
9200
8200
ENDCHAR
STARTCHAR N
ENCODING 78
SWIDTH 750 0
DWIDTH 8 0
BBX 8 9 0 0
BITMAP
21
31
62
52
52
4A
8C
8C
84
ENDCHAR
STARTCHAR O
ENCODING 79
SWIDTH 750 0
DWIDTH 8 0
BBX 8 9 0 0
BITMAP
1E
21
42
42
42
42
84
84
78
ENDCHAR
STARTCHAR P
ENCODING 80
SWIDTH 656 0
DWIDTH 7 0
BBX 8 9 0 0
BITMAP
3E
21
42
42
7C
40
80
80
80
ENDCHAR
STARTCHAR Q
ENCODING 81
SWIDTH 750 0
DWIDTH 8 0
BBX 8 10 0 -1
BITMAP
1E
21
21
42
42
42
4A
8C
78
04
ENDCHAR
STARTCHAR R
ENCODING 82
SWIDTH 750 0
DWIDTH 8 0
BBX 8 9 0 0
BITMAP
3E
21
42
42
7C
42
84
84
84
ENDCHAR
STARTCHAR S
ENCODING 83
SWIDTH 656 0
DWIDTH 7 0
BBX 7 9 0 0
BITMAP
1C
22
40
40
38
04
08
88
70
ENDCHAR
STARTCHAR T
ENCODING 84
SWIDTH 656 0
DWIDTH 7 0
BBX 7 9 0 0
BITMAP
3E
08
10
10
10
10
20
20
20
ENDCHAR
STARTCHAR U
ENCODING 85
SWIDTH 750 0
DWIDTH 8 0
BBX 8 9 0 0
BITMAP
21
21
42
42
42
42
84
84
78
ENDCHAR
STARTCHAR V
ENCODING 86
SWIDTH 656 0
DWIDTH 7 0
BBX 9 9 -1 0
BITMAP
2080
2100
2200
2200
2200
1400
2800
1000
1000
ENDCHAR
STARTCHAR W
ENCODING 87
SWIDTH 1031 0
DWIDTH 11 0
BBX 13 9 -1 0
BITMAP
2008
2010
2220
2220
2220
1540
2A80
1100
1100
ENDCHAR
STARTCHAR X
ENCODING 88
SWIDTH 656 0
DWIDTH 7 0
BBX 9 9 -1 0
BITMAP
2080
2100
2200
1400
0800
1400
6400
8200
8200
ENDCHAR
STARTCHAR Y
ENCODING 89
SWIDTH 656 0
DWIDTH 7 0
BBX 9 9 -1 0
BITMAP
2080
2100
2200
1400
0800
0800
1000
1000
1000
ENDCHAR
STARTCHAR Z
ENCODING 90
SWIDTH 656 0
DWIDTH 7 0
BBX 9 9 -1 0
BITMAP
3F80
0100
0200
0400
0800
1000
6000
8000
FE00
ENDCHAR
STARTCHAR bracketleft
ENCODING 91
SWIDTH 281 0
DWIDTH 3 0
BBX 4 11 0 -2
BITMAP
30
20
20
20
40
40
40
40
80
80
C0
ENDCHAR
STARTCHAR backslash
ENCODING 92
SWIDTH 281 0
DWIDTH 3 0
BBX 4 10 0 -1
BITMAP
20
20
20
40
40
20
20
40
40
40
ENDCHAR
STARTCHAR bracketright
ENCODING 93
SWIDTH 281 0
DWIDTH 3 0
BBX 4 11 0 -2
BITMAP
30
10
10
10
20
20
20
20
40
40
C0
ENDCHAR
STARTCHAR asciicircum
ENCODING 94
SWIDTH 562 0
DWIDTH 6 0
BBX 5 3 1 7
BITMAP
20
50
88
ENDCHAR
STARTCHAR underscore
ENCODING 95
SWIDTH 562 0
DWIDTH 6 0
BBX 6 1 -1 -2
BITMAP
FC
ENDCHAR
STARTCHAR grave
ENCODING 96
SWIDTH 281 0
DWIDTH 3 0
BBX 2 2 1 7
BITMAP
80
40
ENDCHAR
STARTCHAR a
ENCODING 97
SWIDTH 562 0
DWIDTH 6 0
BBX 6 6 0 0
BITMAP
38
04
3C
48
88
78
ENDCHAR
STARTCHAR b
ENCODING 98
SWIDTH 562 0
DWIDTH 6 0
BBX 7 9 0 0
BITMAP
20
20
40
78
44
44
88
88
F0
ENDCHAR
STARTCHAR c
ENCODING 99
SWIDTH 562 0
DWIDTH 6 0
BBX 6 6 0 0
BITMAP
38
44
40
80
88
70
ENDCHAR
STARTCHAR d
ENCODING 100
SWIDTH 562 0
DWIDTH 6 0
BBX 7 9 0 0
BITMAP
02
02
04
3C
44
44
88
88
78
ENDCHAR
STARTCHAR e
ENCODING 101
SWIDTH 562 0
DWIDTH 6 0
BBX 6 6 0 0
BITMAP
38
44
7C
80
88
70
ENDCHAR
STARTCHAR f
ENCODING 102
SWIDTH 281 0
DWIDTH 3 0
BBX 4 9 0 0
BITMAP
10
20
40
60
40
40
80
80
80
ENDCHAR
STARTCHAR g
ENCODING 103
SWIDTH 562 0
DWIDTH 6 0
BBX 7 8 0 -2
BITMAP
1E
24
44
44
44
78
08
F0
ENDCHAR
STARTCHAR h
ENCODING 104
SWIDTH 562 0
DWIDTH 6 0
BBX 7 9 0 0
BITMAP
20
20
40
58
64
44
88
88
88
ENDCHAR
STARTCHAR i
ENCODING 105
SWIDTH 187 0
DWIDTH 2 0
BBX 3 9 0 0
BITMAP
20
00
00
40
40
40
80
80
80
ENDCHAR
STARTCHAR j
ENCODING 106
SWIDTH 187 0
DWIDTH 2 0
BBX 3 11 0 -2
BITMAP
20
00
00
20
40
40
40
40
80
80
80
ENDCHAR
STARTCHAR k
ENCODING 107
SWIDTH 562 0
DWIDTH 6 0
BBX 7 9 0 0
BITMAP
20
20
40
48
50
60
A0
90
88
ENDCHAR
STARTCHAR l
ENCODING 108
SWIDTH 187 0
DWIDTH 2 0
BBX 3 9 0 0
BITMAP
20
20
40
40
40
40
80
80
80
ENDCHAR
STARTCHAR m
ENCODING 109
SWIDTH 750 0
DWIDTH 8 0
BBX 8 6 0 0
BITMAP
76
49
49
92
92
92
ENDCHAR
STARTCHAR n
ENCODING 110
SWIDTH 562 0
DWIDTH 6 0
BBX 6 6 0 0
BITMAP
58
64
44
88
88
88
ENDCHAR
STARTCHAR o
ENCODING 111
SWIDTH 562 0
DWIDTH 6 0
BBX 6 6 0 0
BITMAP
38
44
44
88
88
70
ENDCHAR
STARTCHAR p
ENCODING 112
SWIDTH 562 0
DWIDTH 6 0
BBX 7 8 0 -2
BITMAP
3C
44
44
44
48
F0
80
80
ENDCHAR
STARTCHAR q
ENCODING 113
SWIDTH 562 0
DWIDTH 6 0
BBX 7 8 0 -2
BITMAP
1E
24
44
44
44
78
08
08
ENDCHAR
STARTCHAR r
ENCODING 114
SWIDTH 281 0
DWIDTH 3 0
BBX 3 6 0 0
BITMAP
60
40
40
80
80
80
ENDCHAR
STARTCHAR s
ENCODING 115
SWIDTH 468 0
DWIDTH 5 0
BBX 5 6 0 0
BITMAP
30
48
20
20
90
60
ENDCHAR
STARTCHAR t
ENCODING 116
SWIDTH 281 0
DWIDTH 3 0
BBX 4 8 0 0
BITMAP
20
40
60
40
40
80
80
40
ENDCHAR
STARTCHAR u
ENCODING 117
SWIDTH 562 0
DWIDTH 6 0
BBX 6 6 0 0
BITMAP
44
44
44
88
98
68
ENDCHAR
STARTCHAR v
ENCODING 118
SWIDTH 562 0
DWIDTH 6 0
BBX 6 6 0 0
BITMAP
44
44
28
50
20
20
ENDCHAR
STARTCHAR w
ENCODING 119
SWIDTH 750 0
DWIDTH 8 0
BBX 8 6 0 0
BITMAP
49
49
55
AA
44
44
ENDCHAR
STARTCHAR x
ENCODING 120
SWIDTH 468 0
DWIDTH 5 0
BBX 5 6 0 0
BITMAP
48
48
30
60
90
90
ENDCHAR
STARTCHAR y
ENCODING 121
SWIDTH 468 0
DWIDTH 5 0
BBX 7 8 -1 -2
BITMAP
12
24
24
24
18
20
20
C0
ENDCHAR
STARTCHAR z
ENCODING 122
SWIDTH 468 0
DWIDTH 5 0
BBX 5 6 0 0
BITMAP
78
08
10
60
80
F0
ENDCHAR
STARTCHAR braceleft
ENCODING 123
SWIDTH 375 0
DWIDTH 4 0
BBX 5 11 0 -1
BITMAP
08
10
10
10
20
40
20
20
40
40
20
ENDCHAR
STARTCHAR bar
ENCODING 124
SWIDTH 187 0
DWIDTH 2 0
BBX 3 10 0 -1
BITMAP
20
20
20
40
40
40
40
80
80
80
ENDCHAR
STARTCHAR braceright
ENCODING 125
SWIDTH 375 0
DWIDTH 4 0
BBX 5 11 0 -1
BITMAP
20
10
10
10
20
10
20
20
40
40
80
ENDCHAR
STARTCHAR asciitilde
ENCODING 126
SWIDTH 562 0
DWIDTH 6 0
BBX 5 2 1 6
BITMAP
68
B0
ENDCHAR
STARTCHAR bullet
ENCODING 149
SWIDTH 375 0
DWIDTH 4 0
BBX 5 4 1 1
BITMAP
30
F0
F0
60
ENDCHAR
STARTCHAR space
ENCODING 154
SWIDTH 281 0
DWIDTH 3 0
BBX 0 0 -1 0
BITMAP
ENDCHAR
STARTCHAR degree
ENCODING 156
SWIDTH 375 0
DWIDTH 4 0
BBX 3 3 1 6
BITMAP
40
A0
40
ENDCHAR
STARTCHAR twosuperior
ENCODING 157
SWIDTH 281 0
DWIDTH 3 0
BBX 4 5 0 4
BITMAP
60
20
40
80
E0
ENDCHAR
STARTCHAR periodcentered
ENCODING 158
SWIDTH 281 0
DWIDTH 3 0
BBX 2 2 1 3
BITMAP
C0
C0
ENDCHAR
STARTCHAR afii10071
ENCODING 163
SWIDTH 562 0
DWIDTH 6 0
BBX 7 8 0 0
BITMAP
14
00
38
44
7C
80
88
70
ENDCHAR
STARTCHAR afii10023
ENCODING 179
SWIDTH 656 0
DWIDTH 7 0
BBX 7 11 0 0
BITMAP
14
00
3E
20
40
40
78
40
80
80
F8
ENDCHAR
STARTCHAR copyright
ENCODING 191
SWIDTH 750 0
DWIDTH 8 0
BBX 8 7 1 1
BITMAP
1C
22
4D
51
9A
44
38
ENDCHAR
STARTCHAR afii10096
ENCODING 192
SWIDTH 656 0
DWIDTH 7 0
BBX 7 6 0 0
BITMAP
4C
52
72
A4
A4
98
ENDCHAR
STARTCHAR afii10065
ENCODING 193
SWIDTH 562 0
DWIDTH 6 0
BBX 6 6 0 0
BITMAP
38
04
3C
48
88
78
ENDCHAR
STARTCHAR afii10066
ENCODING 194
SWIDTH 562 0
DWIDTH 6 0
BBX 7 9 0 0
BITMAP
02
1C
20
78
44
44
88
88
70
ENDCHAR
STARTCHAR afii10088
ENCODING 195
SWIDTH 656 0
DWIDTH 7 0
BBX 8 8 0 -2
BITMAP
22
44
44
44
44
FC
04
04
ENDCHAR
STARTCHAR afii10069
ENCODING 196
SWIDTH 656 0
DWIDTH 7 0
BBX 7 7 0 -1
BITMAP
1C
24
24
24
48
FC
84
ENDCHAR
STARTCHAR afii10070
ENCODING 197
SWIDTH 562 0
DWIDTH 6 0
BBX 6 6 0 0
BITMAP
38
44
7C
80
88
70
ENDCHAR
STARTCHAR afii10086
ENCODING 198
SWIDTH 562 0
DWIDTH 6 0
BBX 7 10 0 -2
BITMAP
08
08
1C
34
54
54
58
70
20
20
ENDCHAR
STARTCHAR afii10068
ENCODING 199
SWIDTH 468 0
DWIDTH 5 0
BBX 5 6 0 0
BITMAP
78
40
40
80
80
80
ENDCHAR
STARTCHAR afii10087
ENCODING 200
SWIDTH 468 0
DWIDTH 5 0
BBX 5 6 0 0
BITMAP
48
48
30
60
90
90
ENDCHAR
STARTCHAR afii10074
ENCODING 201
SWIDTH 562 0
DWIDTH 6 0
BBX 6 6 0 0
BITMAP
44
44
4C
B8
C8
88
ENDCHAR
STARTCHAR afii10075
ENCODING 202
SWIDTH 562 0
DWIDTH 6 0
BBX 7 8 0 0
BITMAP
14
18
44
44
4C
B8
C8
88
ENDCHAR
STARTCHAR afii10076
ENCODING 203
SWIDTH 562 0
DWIDTH 6 0
BBX 6 6 0 0
BITMAP
48
50
60
A0
90
88
ENDCHAR
STARTCHAR afii10077
ENCODING 204
SWIDTH 562 0
DWIDTH 6 0
BBX 6 6 0 0
BITMAP
1C
24
24
48
48
88
ENDCHAR
STARTCHAR afii10078
ENCODING 205
SWIDTH 562 0
DWIDTH 6 0
BBX 6 6 0 0
BITMAP
44
6C
54
A8
88
88
ENDCHAR
STARTCHAR afii10079
ENCODING 206
SWIDTH 562 0
DWIDTH 6 0
BBX 6 6 0 0
BITMAP
44
44
7C
88
88
88
ENDCHAR
STARTCHAR afii10080
ENCODING 207
SWIDTH 562 0
DWIDTH 6 0
BBX 6 6 0 0
BITMAP
38
44
44
88
88
70
ENDCHAR
STARTCHAR afii10081
ENCODING 208
SWIDTH 562 0
DWIDTH 6 0
BBX 6 6 0 0
BITMAP
7C
44
44
88
88
88
ENDCHAR
STARTCHAR afii10097
ENCODING 209
SWIDTH 468 0
DWIDTH 5 0
BBX 5 6 0 0
BITMAP
38
48
48
70
90
90
ENDCHAR
STARTCHAR afii10082
ENCODING 210
SWIDTH 562 0
DWIDTH 6 0
BBX 7 8 0 -2
BITMAP
3C
44
44
44
48
F0
80
80
ENDCHAR
STARTCHAR afii10083
ENCODING 211
SWIDTH 562 0
DWIDTH 6 0
BBX 6 6 0 0
BITMAP
38
44
40
80
88
70
ENDCHAR
STARTCHAR afii10084
ENCODING 212
SWIDTH 562 0
DWIDTH 6 0
BBX 6 6 0 0
BITMAP
7C
10
10
20
20
20
ENDCHAR
STARTCHAR afii10085
ENCODING 213
SWIDTH 468 0
DWIDTH 5 0
BBX 7 8 -1 -2
BITMAP
12
24
24
24
18
20
20
C0
ENDCHAR
STARTCHAR afii10072
ENCODING 214
SWIDTH 750 0
DWIDTH 8 0
BBX 8 6 0 0
BITMAP
49
2A
3C
54
92
92
ENDCHAR
STARTCHAR afii10067
ENCODING 215
SWIDTH 562 0
DWIDTH 6 0
BBX 6 6 0 0
BITMAP
78
44
78
88
88
F0
ENDCHAR
STARTCHAR afii10094
ENCODING 216
SWIDTH 468 0
DWIDTH 5 0
BBX 5 6 0 0
BITMAP
40
40
70
90
90
E0
ENDCHAR
STARTCHAR afii10093
ENCODING 217
SWIDTH 656 0
DWIDTH 7 0
BBX 7 6 0 0
BITMAP
42
42
72
94
94
E4
ENDCHAR
STARTCHAR afii10073
ENCODING 218
SWIDTH 562 0
DWIDTH 6 0
BBX 6 6 0 0
BITMAP
38
44
18
08
88
70
ENDCHAR
STARTCHAR afii10090
ENCODING 219
SWIDTH 750 0
DWIDTH 8 0
BBX 8 6 0 0
BITMAP
49
49
49
92
92
FE
ENDCHAR
STARTCHAR afii10095
ENCODING 220
SWIDTH 562 0
DWIDTH 6 0
BBX 6 6 0 0
BITMAP
78
04
3C
08
08
F0
ENDCHAR
STARTCHAR afii10091
ENCODING 221
SWIDTH 843 0
DWIDTH 9 0
BBX 10 8 0 -2
BITMAP
2480
4900
4900
4900
4900
FF00
0100
0100
ENDCHAR
STARTCHAR afii10089
ENCODING 222
SWIDTH 562 0
DWIDTH 6 0
BBX 6 6 0 0
BITMAP
44
44
44
78
08
08
ENDCHAR
STARTCHAR afii10092
ENCODING 223
SWIDTH 562 0
DWIDTH 6 0
BBX 6 6 0 0
BITMAP
60
20
38
48
48
70
ENDCHAR
STARTCHAR afii10048
ENCODING 224
SWIDTH 937 0
DWIDTH 10 0
BBX 10 9 0 0
BITMAP
2780
2840
5080
5080
7080
5080
A100
A100
9E00
ENDCHAR
STARTCHAR afii10017
ENCODING 225
SWIDTH 656 0
DWIDTH 7 0
BBX 9 9 -1 0
BITMAP
0400
0800
1400
1400
2200
2200
7C00
8200
8200
ENDCHAR
STARTCHAR afii10018
ENCODING 226
SWIDTH 656 0
DWIDTH 7 0
BBX 7 9 0 0
BITMAP
3E
20
40
40
78
44
88
88
F0
ENDCHAR
STARTCHAR afii10040
ENCODING 227
SWIDTH 750 0
DWIDTH 8 0
BBX 9 11 0 -2
BITMAP
2100
2100
2100
2100
4200
4200
4200
4200
FE00
0200
0200
ENDCHAR
STARTCHAR afii10021
ENCODING 228
SWIDTH 937 0
DWIDTH 10 0
BBX 10 10 0 -1
BITMAP
0F80
0880
0880
1100
1100
1100
2100
4200
FF00
8100
ENDCHAR
STARTCHAR afii10022
ENCODING 229
SWIDTH 656 0
DWIDTH 7 0
BBX 7 9 0 0
BITMAP
3E
20
40
40
78
40
80
80
F8
ENDCHAR
STARTCHAR afii10038
ENCODING 230
SWIDTH 843 0
DWIDTH 9 0
BBX 9 10 0 0
BITMAP
0400
1F00
2480
4900
4900
4900
4900
9200
7C00
1000
ENDCHAR
STARTCHAR afii10020
ENCODING 231
SWIDTH 656 0
DWIDTH 7 0
BBX 7 9 0 0
BITMAP
3E
20
40
40
40
40
80
80
80
ENDCHAR
STARTCHAR afii10039
ENCODING 232
SWIDTH 656 0
DWIDTH 7 0
BBX 9 9 -1 0
BITMAP
2080
2100
2200
1400
0800
1400
6400
8200
8200
ENDCHAR
STARTCHAR afii10026
ENCODING 233
SWIDTH 750 0
DWIDTH 8 0
BBX 8 9 0 0
BITMAP
21
23
46
4A
52
62
C4
C4
84
ENDCHAR
STARTCHAR afii10027
ENCODING 234
SWIDTH 750 0
DWIDTH 8 0
BBX 8 11 0 0
BITMAP
12
0C
21
23
46
4A
52
62
C4
C4
84
ENDCHAR
STARTCHAR afii10028
ENCODING 235
SWIDTH 656 0
DWIDTH 7 0
BBX 8 9 0 0
BITMAP
22
24
58
60
60
50
90
88
84
ENDCHAR
STARTCHAR afii10029
ENCODING 236
SWIDTH 656 0
DWIDTH 7 0
BBX 8 9 0 0
BITMAP
0F
11
22
22
22
22
44
44
84
ENDCHAR
STARTCHAR afii10030
ENCODING 237
SWIDTH 843 0
DWIDTH 9 0
BBX 9 9 0 0
BITMAP
2080
2080
6300
6300
5500
5900
9200
9200
8200
ENDCHAR
STARTCHAR afii10031
ENCODING 238
SWIDTH 750 0
DWIDTH 8 0
BBX 8 9 0 0
BITMAP
21
21
42
42
7E
42
84
84
84
ENDCHAR
STARTCHAR afii10032
ENCODING 239
SWIDTH 750 0
DWIDTH 8 0
BBX 8 9 0 0
BITMAP
1E
21
42
42
42
42
84
84
78
ENDCHAR
STARTCHAR afii10033
ENCODING 240
SWIDTH 750 0
DWIDTH 8 0
BBX 8 9 0 0
BITMAP
3F
21
42
42
42
42
84
84
84
ENDCHAR
STARTCHAR afii10049
ENCODING 241
SWIDTH 750 0
DWIDTH 8 0
BBX 8 9 0 0
BITMAP
1F
21
42
42
3E
12
24
44
84
ENDCHAR
STARTCHAR afii10034
ENCODING 242
SWIDTH 656 0
DWIDTH 7 0
BBX 8 9 0 0
BITMAP
3E
21
42
42
7C
40
80
80
80
ENDCHAR
STARTCHAR afii10035
ENCODING 243
SWIDTH 656 0
DWIDTH 7 0
BBX 8 9 0 0
BITMAP
1E
21
40
40
40
40
80
84
78
ENDCHAR
STARTCHAR afii10036
ENCODING 244
SWIDTH 656 0
DWIDTH 7 0
BBX 7 9 0 0
BITMAP
3E
08
10
10
10
10
20
20
20
ENDCHAR
STARTCHAR afii10037
ENCODING 245
SWIDTH 656 0
DWIDTH 7 0
BBX 9 9 -1 0
BITMAP
2080
2100
2200
1400
0800
1000
2000
4000
8000
ENDCHAR
STARTCHAR afii10024
ENCODING 246
SWIDTH 1031 0
DWIDTH 11 0
BBX 13 9 -1 0
BITMAP
2108
1110
1260
0A80
0F80
1280
2480
4440
8420
ENDCHAR
STARTCHAR afii10019
ENCODING 247
SWIDTH 656 0
DWIDTH 7 0
BBX 7 9 0 0
BITMAP
3C
22
44
44
78
44
88
88
F0
ENDCHAR
STARTCHAR afii10046
ENCODING 248
SWIDTH 656 0
DWIDTH 7 0
BBX 8 9 0 0
BITMAP
20
20
40
40
7C
42
84
84
F8
ENDCHAR
STARTCHAR afii10045
ENCODING 249
SWIDTH 937 0
DWIDTH 10 0
BBX 10 9 0 0
BITMAP
2040
2040
4080
4080
7C80
4280
8500
8500
F900
ENDCHAR
STARTCHAR afii10025
ENCODING 250
SWIDTH 656 0
DWIDTH 7 0
BBX 7 9 0 0
BITMAP
1C
22
04
08
38
04
08
88
70
ENDCHAR
STARTCHAR afii10042
ENCODING 251
SWIDTH 1031 0
DWIDTH 11 0
BBX 11 9 0 0
BITMAP
2220
2220
4440
4440
4440
4440
8880
8880
FF80
ENDCHAR
STARTCHAR afii10047
ENCODING 252
SWIDTH 750 0
DWIDTH 8 0
BBX 8 9 0 0
BITMAP
1E
21
02
02
1E
02
04
84
78
ENDCHAR
STARTCHAR afii10043
ENCODING 253
SWIDTH 1031 0
DWIDTH 11 0
BBX 12 11 0 -2
BITMAP
2220
2220
2220
2220
4440
4440
4440
4440
FFC0
0040
0040
ENDCHAR
STARTCHAR afii10041
ENCODING 254
SWIDTH 750 0
DWIDTH 8 0
BBX 8 9 0 0
BITMAP
21
21
42
42
3E
02
04
04
04
ENDCHAR
STARTCHAR afii10044
ENCODING 255
SWIDTH 750 0
DWIDTH 8 0
BBX 10 9 -1 0
BITMAP
3800
0800
1000
1000
1F00
1080
2100
2100
3E00
ENDCHAR
ENDFONT
